<?xml version="1.0" encoding="UTF-8"?>
<svg id="Layer_1" data-name="Layer 1" xmlns="http://www.w3.org/2000/svg" version="1.1" viewBox="0 0 80 80">
  <defs>
    <style>
      .cls-1 {
        fill: #000;
        stroke-width: 0px;
      }
    </style>
  </defs>
  <path class="cls-1" d="M5.6,5.4c0-2.4,1.9-4.4,4.4-4.4s4.4,1.9,4.4,4.4-1.9,4.4-4.4,4.4-4.4-1.9-4.4-4.4ZM5,17.6c-.8.9-1.2,2-1.2,3.3s.5,2.4,1.2,3.3v-6.6ZM16.2,13.8c-2.3,2-3.8,5-3.8,8.4s.9,5.1,2.5,7v1.7c0,1.4-1.1,2.5-2.5,2.5h-5c-1.4,0-2.5-1.1-2.5-2.5v-2.1c-2.9-1.4-5-4.4-5-7.9s3.9-8.7,8.7-8.7h2.5c1.9,0,3.6.6,5,1.6h0ZM34.8,30.9v-1.7c1.6-1.9,2.5-4.4,2.5-7s-1.5-6.3-3.8-8.4c1.4-1,3.1-1.6,5-1.6h2.5c4.8,0,8.7,3.9,8.7,8.7s-2,6.5-5,7.9v2.1c0,1.4-1.1,2.5-2.5,2.5h-5c-1.4,0-2.5-1.1-2.5-2.5ZM35.5,5.4c0-2.4,1.9-4.4,4.4-4.4s4.4,1.9,4.4,4.4-1.9,4.4-4.4,4.4-4.4-1.9-4.4-4.4ZM44.8,17.6v6.6c.8-.9,1.2-2,1.2-3.3s-.5-2.4-1.2-3.3h0ZM24.9,1c2.7,0,5,2.2,5,5s-2.2,5-5,5-5-2.2-5-5,2.2-5,5-5ZM18.7,22.1c0,1.3.5,2.4,1.2,3.3v-6.6c-.8.9-1.2,2-1.2,3.3ZM29.9,18.9v6.6c.8-.9,1.2-2,1.2-3.3s-.5-2.4-1.2-3.3h0ZM34.8,22.1c0,3.5-2,6.5-5,7.9v3.3c0,1.4-1.1,2.5-2.5,2.5h-5c-1.4,0-2.5-1.1-2.5-2.5v-3.3c-2.9-1.4-5-4.4-5-7.9s3.9-8.7,8.7-8.7h2.5c4.8,0,8.7,3.9,8.7,8.7Z"/>
</svg>